<?xml version="1.0" encoding="UTF-8"?>
<svg width="300px" height="300px" viewBox="0 0 300 300" version="1.1" xmlns="http://www.w3.org/2000/svg" xmlns:xlink="http://www.w3.org/1999/xlink">
    <!-- Generator: Sketch 64 (93537) - https://sketch.com -->
    <title>Knowledge connectors</title>
    <desc>Created with Sketch.</desc>
    <g id="Knowledge-connectors" stroke="none" stroke-width="1" fill="none" fill-rule="evenodd">
        <path d="M150,50 C103.1,50 65,88.2905 65,135.425 C65,182.5595 103.1,220.85 150,220.85 L155,220.85 L155,251 C203.6,227.483 235,180.65 235,135.425 C235,88.2905 196.9,50 150,50 Z M160,195.725 L140,195.725 L140,175.625 L160,175.625 L160,195.725 Z M164,147.686 C163.9,147.7865 163.8,147.9875 163.7,148.1885 C163.2,148.9925 162.7,149.7965 162.3,150.6005 C162.1,150.902 162,151.304 161.9,151.706 C161.6,152.4095 161.3,153.113 161.1,153.8165 C160.4,155.927 160.1,158.138 160.1,160.6505 L140,160.6505 C140,155.525 140.8,151.2035 142,147.5855 C142,147.485 142,147.3845 142.1,147.284 C142.2,146.882 142.5,146.681 142.6,146.279 C143.2,144.671 143.9,143.264 144.8,141.857 C145.1,141.3545 145.5,140.852 145.8,140.3495 C146.1,139.9475 146.3,139.445 146.6,139.1435 L146.7,139.244 C155.1,128.189 168.8,124.772 169.9,112.31 C170.8,102.461 163.8,92.9135 154.2,90.9035 C143.8,88.6925 134.4,94.823 131.2,103.7675 C129.8,107.3855 126.5,110.3 122.4,110.3 L120.4,110.3 C114.4,110.3 110,104.3705 111.7,98.5415 C117.2,80.2505 135.4,67.487 156,70.502 C172.9,73.0145 186.4,86.984 189.3,103.9685 C193.7,128.4905 173,134.42 164,147.686 L164,147.686 Z" id="Shape" fill="#000000" fill-rule="nonzero"></path>
    </g>
</svg>