<?xml version="1.0" encoding="UTF-8"?>
<svg width="300px" height="300px" viewBox="0 0 300 300" version="1.1" xmlns="http://www.w3.org/2000/svg" xmlns:xlink="http://www.w3.org/1999/xlink">
    <!-- Generator: Sketch 64 (93537) - https://sketch.com -->
    <title>Platform specific</title>
    <desc>Created with Sketch.</desc>
    <defs>
        <circle id="path-1" cx="150" cy="150" r="91"></circle>
    </defs>
    <g id="Platform-specific" stroke="none" stroke-width="1" fill="none" fill-rule="evenodd">
        <mask id="mask-2" fill="white">
            <use xlink:href="#path-1"></use>
        </mask>
        <g id="Oval"></g>
        <g id="Facebook" mask="url(#mask-2)" fill="#000000" fill-rule="nonzero">
            <g transform="translate(59.000000, 59.000000)" id="Path">
                <path d="M77,38.7342247 C77,17.3435201 59.7613556,0 38.5,0 C17.2386444,0 0,17.3435201 0,38.7342247 C0,58.065931 14.0767824,74.0912564 32.4848826,77 L32.4848826,49.9334324 L22.7069329,49.9334324 L22.7069329,38.7342247 L32.4848826,38.7342247 L32.4848826,30.1986418 C32.4848826,20.4919355 38.2347068,15.1265563 47.0272817,15.1265563 C51.2394881,15.1265563 55.6466039,15.8837012 55.6466039,15.8837012 L55.6466039,25.4161007 L50.7901139,25.4161007 C46.009422,25.4161007 44.5151174,28.4011036 44.5151174,31.4678127 L44.5151174,38.7342247 L55.1918155,38.7342247 L53.4863592,49.9334324 L44.5151174,49.9334324 L44.5151174,77 C62.9232176,74.0967035 77,58.071378 77,38.7342247 Z"></path>
            </g>
        </g>
        <g id="Slack" mask="url(#mask-2)">
            <g transform="translate(164.000000, 59.000000)" id="Group">
                <g transform="translate(0.000000, 40.000000)">
                    <path d="M16.5559322,8.2779661 C16.5559322,12.7305085 12.9186441,16.3677966 8.46610169,16.3677966 C4.01355932,16.3677966 0.376271186,12.7305085 0.376271186,8.2779661 C0.376271186,3.82542373 4.01355932,0.188135593 8.46610169,0.188135593 L16.5559322,0.188135593 L16.5559322,8.2779661 Z" id="Path" fill="#000000" fill-rule="nonzero"></path>
                    <path d="M20.6322034,8.2779661 C20.6322034,3.82542373 24.2694915,0.188135593 28.7220339,0.188135593 C33.1745763,0.188135593 36.8118644,3.82542373 36.8118644,8.2779661 L36.8118644,28.5338983 C36.8118644,32.9864407 33.1745763,36.6237288 28.7220339,36.6237288 C24.2694915,36.6237288 20.6322034,32.9864407 20.6322034,28.5338983 C20.6322034,28.5338983 20.6322034,8.2779661 20.6322034,8.2779661 Z" id="Path" fill="#000000" fill-rule="nonzero"></path>
                </g>
                <g>
                    <path d="M28.7220339,16.5559322 C24.2694915,16.5559322 20.6322034,12.9186441 20.6322034,8.46610169 C20.6322034,4.01355932 24.2694915,0.376271186 28.7220339,0.376271186 C33.1745763,0.376271186 36.8118644,4.01355932 36.8118644,8.46610169 L36.8118644,16.5559322 L28.7220339,16.5559322 Z" id="Path" fill="#000000" fill-rule="nonzero"></path>
                    <path d="M28.7220339,20.6322034 C33.1745763,20.6322034 36.8118644,24.2694915 36.8118644,28.7220339 C36.8118644,33.1745763 33.1745763,36.8118644 28.7220339,36.8118644 L8.46610169,36.8118644 C4.01355932,36.8118644 0.376271186,33.1745763 0.376271186,28.7220339 C0.376271186,24.2694915 4.01355932,20.6322034 8.46610169,20.6322034 C8.46610169,20.6322034 28.7220339,20.6322034 28.7220339,20.6322034 Z" id="Path" fill="#000000" fill-rule="nonzero"></path>
                </g>
                <g transform="translate(40.000000, 0.000000)">
                    <path d="M20.4440678,28.7220339 C20.4440678,24.2694915 24.0813559,20.6322034 28.5338983,20.6322034 C32.9864407,20.6322034 36.6237288,24.2694915 36.6237288,28.7220339 C36.6237288,33.1745763 32.9864407,36.8118644 28.5338983,36.8118644 L20.4440678,36.8118644 L20.4440678,28.7220339 Z" id="Path" fill="#000000" fill-rule="nonzero"></path>
                    <path d="M16.3677966,28.7220339 C16.3677966,33.1745763 12.7305085,36.8118644 8.2779661,36.8118644 C3.82542373,36.8118644 0.188135593,33.1745763 0.188135593,28.7220339 L0.188135593,8.46610169 C0.188135593,4.01355932 3.82542373,0.376271186 8.2779661,0.376271186 C12.7305085,0.376271186 16.3677966,4.01355932 16.3677966,8.46610169 L16.3677966,28.7220339 Z" id="Path" fill="#000000" fill-rule="nonzero"></path>
                </g>
                <g transform="translate(40.000000, 40.000000)">
                    <path d="M8.2779661,20.4440678 C12.7305085,20.4440678 16.3677966,24.0813559 16.3677966,28.5338983 C16.3677966,32.9864407 12.7305085,36.6237288 8.2779661,36.6237288 C3.82542373,36.6237288 0.188135593,32.9864407 0.188135593,28.5338983 L0.188135593,20.4440678 L8.2779661,20.4440678 Z" id="Path" fill="#000000" fill-rule="nonzero"></path>
                    <path d="M8.2779661,16.3677966 C3.82542373,16.3677966 0.188135593,12.7305085 0.188135593,8.2779661 C0.188135593,3.82542373 3.82542373,0.188135593 8.2779661,0.188135593 L28.5338983,0.188135593 C32.9864407,0.188135593 36.6237288,3.82542373 36.6237288,8.2779661 C36.6237288,12.7305085 32.9864407,16.3677966 28.5338983,16.3677966 L8.2779661,16.3677966 Z" id="Path" fill="#000000" fill-rule="nonzero"></path>
                </g>
            </g>
        </g>
        <g id="Telegram" mask="url(#mask-2)" fill="#000000" fill-rule="nonzero">
            <g transform="translate(59.000000, 164.000000)" id="Combined-Shape">
                <path d="M38.5,0 C59.7629629,0 77,17.2370371 77,38.5 C77,59.7629629 59.7629629,77 38.5,77 C17.2370371,77 0,59.7629629 0,38.5 C0,17.2370371 17.2370371,0 38.5,0 Z M55.9803761,25.5439486 C56.3118606,21.7595297 52.3340473,23.3178198 52.3340473,23.3178198 C40.2901126,28.3266096 26.6992505,33.6693186 15.6497691,38.9007213 C11.1194818,40.5703178 13.7713573,42.2399144 13.7713573,42.2399144 L13.7713573,42.2399144 L20.9535202,44.4660432 C24.0674649,45.4070885 25.8163066,44.4818857 26.0168496,44.3662834 L26.0362816,44.3547368 L41.5055555,33.7806251 C47.0302962,29.9962062 45.7043585,33.1127865 44.3784207,34.4484637 L44.3784207,34.4484637 L32.7764653,45.5791076 C31.0085482,47.1373977 31.8925067,48.473075 32.6659704,49.1409136 C35.4283408,51.5896553 43.2734726,56.598445 43.7154518,56.9323643 C44.2679259,57.3775901 47.2512858,59.381106 49.2401925,58.9358802 C51.2290991,58.4906545 51.4500888,55.9306064 51.4500888,55.9306064 L51.4500888,55.9306064 L54.1019643,38.4554955 C54.875428,32.5562543 55.8698813,27.1022388 55.9803761,25.5439486 Z"></path>
            </g>
        </g>
        <g id="RCS" mask="url(#mask-2)" fill="#000000" fill-rule="nonzero">
            <g transform="translate(150.000000, 164.000000)" id="Combined-Shape">
                <path d="M88.8742275,2.67733562e-14 C99.0158551,2.67733562e-14 107.240057,8.16480408 107.25,18.2430051 L107.25,18.2430051 L107.25,58.7391423 C107.25,68.8243355 99.0228864,77 88.8742275,77 L88.8742275,77 L29.8555701,77 C19.7139474,76.9901194 11.4978083,68.8173482 11.4978131,58.7391423 L11.4978131,58.7391423 L11.4978131,25.7800846 L0.652504297,7.16117089 C-0.213835794,5.68490696 -0.217733643,3.8605161 0.642290527,2.38060975 C1.5023147,0.900703397 3.09438048,-0.00778221335 4.81407629,2.67733562e-14 L4.81407629,2.67733562e-14 Z M60.2720369,20.625904 L59.9795114,20.6259118 C53.3819755,20.6259118 49.5,25.5078703 49.5,33.249782 L49.5,33.249782 L49.5,42.3579135 C49.5,50.1180415 53.418426,55 59.9795114,55 C65.866263,55 69.5842113,50.7009619 70.1127432,43.705917 C70.2038694,42.7768876 69.7846889,42.321481 68.9281028,42.321481 L68.9281028,42.321481 L66.4130201,42.321481 C65.6293349,42.321481 65.1372535,42.7768876 65.1372535,43.6694844 C64.8091992,47.9685225 63.2782793,50.1180415 59.8519347,50.1180415 C56.4255901,50.1180415 54.493715,47.239872 54.493715,42.2303997 L54.493715,42.2303997 L54.493715,33.3590796 C54.493715,28.3860398 56.3891396,25.489654 59.8519347,25.489654 C63.023126,25.489654 64.8091992,27.639173 65.1372535,31.8835623 C65.2101544,32.7761592 65.6293349,33.2315658 66.4130201,33.2315658 L66.4130201,33.2315658 L68.9281028,33.2315658 C69.7846889,33.2315658 70.1127432,32.7761592 70.1127432,31.8471298 C69.5842113,24.8520848 65.866263,20.5530467 59.9795114,20.6259118 Z M82.3549659,20.6348787 C79.8826843,20.5135697 77.4880928,21.5145784 75.8409011,23.3579469 C74.201165,25.2621383 73.3375325,27.7110173 73.4208714,30.2200789 C73.2226812,32.6965485 74.1046857,35.1379755 75.8409011,36.9188268 C77.4748506,38.39968 79.4119295,39.5084564 81.5179632,40.1683549 C83.0605463,40.67708 84.5106232,41.4310991 85.8121512,42.4012709 C86.705661,43.2249513 87.1857367,44.4024182 87.1222425,45.6144914 C87.2853002,46.8485252 86.8569462,48.0871919 85.965869,48.958364 C85.0747919,49.8295362 83.8248323,50.2316929 82.5915102,50.0440158 C80.2447607,50.0511849 78.2651605,48.3025337 77.9879951,45.9775672 C77.8242337,45.1243391 77.4057323,44.6886482 76.7142952,44.6886482 L76.7142952,44.6886482 L74.0577213,44.6886482 C73.2025228,44.6886482 72.875,45.1243391 72.875,46.0683361 C73.4936542,51.7867795 76.9508395,55 82.5915102,55 C88.2321809,55 92.1078676,51.6415492 92.1078676,45.3603384 C92.2510302,43.0942711 91.4925839,40.8633144 89.997165,39.1517428 C88.1108871,37.3729789 85.8650119,36.0174169 83.4103172,35.1760631 C79.825762,33.8871442 78.4610836,32.7434555 78.4610836,29.9477721 C78.4610836,27.1520887 79.9167405,25.5000939 82.4277488,25.5000939 C84.4292771,25.5000939 85.7939555,26.6437826 86.2488483,29.0219289 C86.4126097,29.8751569 86.8311111,30.3108479 87.5225481,30.3108479 L87.5225481,30.3108479 L90.0881435,30.3108479 C90.943342,30.3108479 91.2708648,29.8751569 91.2708648,28.9311599 C90.6522106,23.7028689 87.3587867,20.6348787 82.3549659,20.6348787 Z M35.7053792,22 L28.7371747,22 C27.9184561,22 27.5,22.4485743 27.5,23.32778 L27.5,23.32778 L27.5,53.6693464 C27.5,54.566495 27.9184561,54.9971264 28.7371747,54.9971264 L28.7371747,54.9971264 L31.1751366,54.9971264 C31.9938551,54.9971264 32.4123113,54.566495 32.4123113,53.6693464 L32.4123113,53.6693464 L32.4123113,41.9346424 L36.4877103,41.9346424 L41.581959,54.0282059 C41.7874155,54.6399077 42.3853784,55.0379693 43.0374586,54.9971264 L43.0374586,54.9971264 L45.657358,54.9074115 C46.6034328,54.9074115 46.9855014,54.2973504 46.6034328,53.3643159 L46.6034328,53.3643159 L41.1453091,40.8042351 C44.1836646,39.3329114 45.7119392,36.5517507 45.7119392,32.5504678 L45.7119392,32.5504678 L45.7119392,31.4021176 C45.7119392,25.1759061 41.8002839,22 35.7053792,22 L35.7053792,22 Z M35.4506668,26.7369447 C38.9438659,26.7369447 40.7632405,28.3338693 40.7632405,31.4559465 L40.7632405,31.4559465 L40.7632405,32.3351521 C40.7632405,35.5110583 38.7437347,37.0541539 35.4506668,37.0541539 L35.4506668,37.0541539 L32.4123113,37.0541539 L32.4123113,26.7369447 Z"></path>
            </g>
        </g>
    </g>
</svg>