<?xml version="1.0" encoding="UTF-8"?>
<svg width="300px" height="300px" viewBox="0 0 300 300" version="1.1" xmlns="http://www.w3.org/2000/svg" xmlns:xlink="http://www.w3.org/1999/xlink">
    <!-- Generator: Sketch 64 (93537) - https://sketch.com -->
    <title>Speech bubbles</title>
    <desc>Created with Sketch.</desc>
    <g id="Speech-bubbles" stroke="none" stroke-width="1" fill="none" fill-rule="evenodd">
        <path d="M250,150 L250,209 L250,209 L249.996,208.997 L249.99444,209.186278 C249.627962,231.789563 231.190619,250 208.5,250 L138.5,250 C115.580183,250 97,231.419817 97,208.5 C97,185.580183 115.580183,167 138.5,167 L180.238,167 L180,166.857143 C211.111112,167.559524 234.444445,161.940476 250,150 Z" id="Bubble-right" fill="#000000"></path>
        <path d="M54,56.7773886 L54,108.483797 L54.0052939,109.137249 C54.1751381,119.351659 58.4295998,128.571937 65.2052262,135.236409 C71.9731232,141.893278 81.2569869,146 91.5,146 L161.5,146 C171.855339,146 181.230339,141.80267 188.016504,135.016504 C194.80267,128.230339 199,118.855339 199,108.5 C199,98.1446609 194.80267,88.7696609 188.016504,81.9834957 C181.230339,75.1973305 171.855339,71 161.5,71 L120,71 C108.673718,71 99.6039812,70.9944729 84.4455818,68.8729726 C77.4632232,67.8957536 67.3016667,63.9145111 54,56.7773886 Z" id="Bubble-left" stroke="#000000" stroke-width="8"></path>
    </g>
</svg>