<?xml version="1.0" encoding="UTF-8"?>
<svg width="300px" height="300px" viewBox="0 0 300 300" version="1.1" xmlns="http://www.w3.org/2000/svg" xmlns:xlink="http://www.w3.org/1999/xlink">
    <!-- Generator: Sketch 64 (93537) - https://sketch.com -->
    <title>SSML</title>
    <desc>Created with Sketch.</desc>
    <g id="SSML" stroke="none" stroke-width="1" fill="none" fill-rule="evenodd">
        <path d="M118.722222,210 C123.091667,210 126.666667,205.5 126.666667,200 L126.666667,100 C126.666667,94.5 123.091667,90 118.722222,90 C114.352778,90 110.777778,94.5 110.777778,100 L110.777778,200 C110.777778,205.5 114.352778,210 118.722222,210 Z M150.5,250 C154.869444,250 158.444444,245.5 158.444444,240 L158.444444,60 C158.444444,54.5 154.869444,50 150.5,50 C146.130556,50 142.555556,54.5 142.555556,60 L142.555556,240 C142.555556,245.5 146.130556,250 150.5,250 Z M86.9444444,170 C91.3138889,170 94.8888889,165.5 94.8888889,160 L94.8888889,140 C94.8888889,134.5 91.3138889,130 86.9444444,130 C82.575,130 79,134.5 79,140 L79,160 C79,165.5 82.575,170 86.9444444,170 Z M182.277778,210 C186.647222,210 190.222222,205.5 190.222222,200 L190.222222,100 C190.222222,94.5 186.647222,90 182.277778,90 C177.908333,90 174.333333,94.5 174.333333,100 L174.333333,200 C174.333333,205.5 177.908333,210 182.277778,210 Z M206.111111,140 L206.111111,160 C206.111111,165.5 209.686111,170 214.055556,170 C218.425,170 222,165.5 222,160 L222,140 C222,134.5 218.425,130 214.055556,130 C209.686111,130 206.111111,134.5 206.111111,140 Z" id="Shape" fill="#000000" fill-rule="nonzero"></path>
    </g>
</svg>