<?xml version="1.0" encoding="UTF-8"?>
<svg width="300px" height="300px" viewBox="0 0 300 300" version="1.1" xmlns="http://www.w3.org/2000/svg" xmlns:xlink="http://www.w3.org/1999/xlink">
    <!-- Generator: Sketch 64 (93537) - https://sketch.com -->
    <title>Tables</title>
    <desc>Created with Sketch.</desc>
    <g id="Tables" stroke="none" stroke-width="1" fill="none" fill-rule="evenodd">
        <g id="Table-row" transform="translate(60.000000, 81.000000)" fill="#000000">
            <rect id="Rectangle" x="0" y="0" width="50" height="12.5" rx="6.25"></rect>
            <rect id="Rectangle" x="0" y="17.5" width="25.5555556" height="12.5" rx="6.25"></rect>
        </g>
        <g id="Table-row" transform="translate(60.000000, 135.000000)" fill="#000000">
            <rect id="Rectangle" x="0" y="0" width="50" height="12.5" rx="6.25"></rect>
            <rect id="Rectangle" x="0" y="17.5" width="25.5555556" height="12.5" rx="6.25"></rect>
        </g>
        <g id="Table-row" transform="translate(125.000000, 81.000000)" fill="#000000">
            <rect id="Rectangle" x="0" y="0" width="50" height="12.5" rx="6.25"></rect>
            <rect id="Rectangle" x="0" y="17.5" width="25.5555556" height="12.5" rx="5"></rect>
        </g>
        <g id="Table-row" transform="translate(125.000000, 135.000000)" fill="#000000">
            <rect id="Rectangle" x="0" y="0" width="50" height="12.5" rx="6.25"></rect>
            <rect id="Rectangle" x="0" y="17.5" width="25.5555556" height="12.5" rx="6.25"></rect>
        </g>
        <g id="Table-row" transform="translate(190.000000, 81.000000)" fill="#000000">
            <rect id="Rectangle" x="0" y="0" width="50" height="12.5" rx="6.25"></rect>
            <rect id="Rectangle" x="4.97379915e-14" y="17.5" width="25.5555556" height="12.5" rx="6.25"></rect>
        </g>
        <g id="Table-row" transform="translate(190.000000, 135.000000)" fill="#000000">
            <rect id="Rectangle" x="0" y="0" width="50" height="12.5" rx="6.25"></rect>
            <rect id="Rectangle" x="4.97379915e-14" y="17.5" width="25.5555556" height="12.5" rx="6.25"></rect>
        </g>
        <g id="Table-row" transform="translate(60.000000, 189.000000)" fill="#000000">
            <rect id="Rectangle" x="0" y="0" width="50" height="12.5" rx="6.25"></rect>
            <rect id="Rectangle" x="4.97379915e-14" y="17.5" width="25.5555556" height="12.5" rx="6.25"></rect>
        </g>
        <g id="Table-row" transform="translate(125.000000, 189.000000)" fill="#000000">
            <rect id="Rectangle" x="0" y="0" width="50" height="12.5" rx="6.25"></rect>
            <rect id="Rectangle" x="0" y="17.5" width="25.5555556" height="12.5" rx="6.25"></rect>
        </g>
        <g id="Table-row" transform="translate(190.000000, 189.000000)" fill="#000000">
            <rect id="Rectangle" x="0" y="0" width="50" height="12.5" rx="6.25"></rect>
            <rect id="Rectangle" x="0" y="17.5" width="25.5555556" height="12.5" rx="6.25"></rect>
        </g>
    </g>
</svg>